<?xml version="1.0" standalone="no"?>
<!DOCTYPE svg PUBLIC "-//W3C//DTD SVG 20010904//EN"
 "http://www.w3.org/TR/2001/REC-SVG-20010904/DTD/svg10.dtd">
<svg version="1.0" xmlns="http://www.w3.org/2000/svg"
 width="374.000000pt" height="344.000000pt" viewBox="0 0 374.000000 344.000000"
 preserveAspectRatio="xMidYMid meet">

<g transform="translate(0.000000,344.000000) scale(0.100000,-0.100000)"
fill="#000000" stroke="none">
<path d="M0 1720 l0 -1720 1870 0 1870 0 0 1720 0 1720 -1870 0 -1870 0 0
-1720z m1031 1490 c185 -40 326 -117 459 -250 104 -104 189 -213 418 -540 153
-217 263 -370 511 -710 74 -102 166 -230 205 -285 195 -277 314 -390 484 -459
l77 -31 199 0 c177 0 200 -2 210 -17 10 -17 -9 -161 -34 -250 -10 -33 -79
-121 -168 -213 -68 -71 -204 -109 -382 -108 -141 1 -229 22 -361 89 -233 117
-298 184 -693 729 -43 61 -143 197 -220 304 -193 266 -242 333 -385 533 -274
381 -355 474 -490 560 -114 72 -253 90 -439 58 -143 -25 -193 -22 -217 13 -30
43 -13 147 52 310 28 69 47 101 87 141 49 49 82 67 231 123 99 37 295 38 456
3z m2557 -70 c-228 -208 -586 -770 -632 -992 l-13 -63 -27 60 c-15 33 -39 87
-53 120 -14 33 -77 163 -140 288 -217 429 -337 598 -445 622 -91 21 27 25 673
25 l702 0 -65 -60z m-2714 -1790 c80 -193 297 -603 403 -763 69 -104 151 -180
208 -193 l30 -7 -30 -9 c-33 -9 -1276 -10 -1338 -1 l-38 6 28 17 c35 21 149
148 238 265 186 244 363 557 426 753 l23 73 12 -38 c6 -21 23 -67 38 -103z"/>
</g>
</svg>
